# xmcd
#
# Track frame offsets:
#	182
#	16982
#	30140
#	48545
#	66775
#	79380
#	96437
#	110647
#	125760
#	141090
#	158372
#	173455
#	189062
#	206530
#	220392
#
# Disc length: 3162 seconds
#
# Revision: 1
# Processed by: cddbd v1.5.2PL0 Copyright (c) Steve Scherf et al.
# Submitted via: audiograbber 1.83.01
#
DISCID=c50c580f
DTITLE=karaoke - 6035
DYEAR=1900
DGENRE=karaoke
TTITLE0=Little Texas - God Blessed Texas
TTITLE1=Faith Hill - Wild One
TTITLE2=Trisha Yearwood - The Song Remembers When
TTITLE3=Doug Supernaw - I Don't Call Him Daddy
TTITLE4=Tracy Byrd - Holdin' Heaven
TTITLE5=Wynonna - Is It Over Yet
TTITLE6=John Anderson - Money In The Bank
TTITLE7=Sawyer Brown - Thank God For You
TTITLE8=Carlene Carter - Every Little Thing
TTITLE9=Dwight Yoakam - Fast As You
TTITLE10=Suzy Bogguss - Heartache
TTITLE11=Sawyer Brown - The Boys And Me
TTITLE12=Shenandoah - I Want To Be Loved Like That
TTITLE13=Clay Walker - Live Until I Die
TTITLE14=Doug Stone - I Never Knew Love
EXTD=
EXTT0=
EXTT1=
EXTT2=
EXTT3=
EXTT4=
EXTT5=
EXTT6=
EXTT7=
EXTT8=
EXTT9=
EXTT10=
EXTT11=
EXTT12=
EXTT13=
EXTT14=
PLAYORDER=
